<svg viewBox="0 0 283.45 131.53" xmlns="http://www.w3.org/2000/svg" xmlns:xlink="http://www.w3.org/1999/xlink" id="Lager_1" overflow="hidden"><defs></defs><path d="M94.4 35.46C94.46 39.88 90.92 43.5 86.5 43.56 82.08 43.62 78.46 40.08 78.4 35.66 78.34 31.24 81.88 27.62 86.3 27.56 86.33 27.56 86.37 27.56 86.4 27.56 90.77 27.59 94.32 31.09 94.4 35.46Z" fill="#FFFFFF"/><rect x="79.9" y="49.68" rx="0.46" ry="0.46" width="13.1" height="45.63" fill="#FFFFFF"/><path d="M145.98 69.48 145.98 94.85C145.98 95.11 145.78 95.31 145.52 95.32L133.34 95.32C133.08 95.32 132.88 95.11 132.88 94.85L132.88 71.71C132.88 65.39 129.44 61.77 124.05 61.77L123.64 61.77C118.73 62.03 114.89 66.11 114.92 71.03L114.92 94.85C114.92 95.11 114.72 95.31 114.46 95.32L102.3 95.32C102.05 95.32 101.84 95.11 101.84 94.86 101.84 94.86 101.84 94.86 101.84 94.85L101.84 50.15C101.84 49.9 102.04 49.69 102.29 49.68 102.29 49.68 102.29 49.68 102.3 49.68L114.48 49.68C114.74 49.68 114.94 49.89 114.94 50.15L114.94 54.88C114.94 54.88 114.99 54.92 115.02 54.91 115.03 54.91 115.04 54.89 115.05 54.88 117.9 50.92 122.51 48.62 127.39 48.72 138.92 48.75 145.98 56.65 145.98 69.48Z" fill="#FFFFFF"/><path d="M197.92 75.61 165.39 75.61C165.39 75.61 165.33 75.64 165.33 75.67 165.33 75.67 165.33 75.67 165.33 75.68 166.56 81.87 170.82 85.09 177.03 85.09 180.92 85.09 185.03 83.41 186.73 80.84 186.86 80.63 187.14 80.56 187.36 80.69L196.81 86.44C197.02 86.57 197.09 86.85 196.97 87.07 193.51 92.87 185.97 96.25 176.75 96.25 163.63 96.44 152.85 85.96 152.66 72.84 152.47 59.82 162.8 49.08 175.81 48.76 187.78 48.21 197.92 57.46 198.48 69.43 198.5 69.79 198.5 70.15 198.5 70.5 198.5 72.14 198.39 73.78 198.15 75.41 198.14 75.53 198.04 75.62 197.92 75.61ZM185.32 67.25C185.32 67.25 185.38 67.22 185.38 67.19 185.38 67.19 185.38 67.19 185.38 67.18 184.79 62.66 180.63 59.35 175.82 59.35 170.36 59.35 166.75 62.29 165.52 67.17 165.51 67.2 165.52 67.24 165.56 67.25 165.56 67.25 165.58 67.25 165.58 67.25L185.32 67.25Z" fill="#FFFFFF"/><path d="M235.01 49.76 234.3 61.56C234.29 61.69 234.18 61.78 234.05 61.77 234.03 61.77 234.01 61.77 234 61.76 232.2 61.16 230.32 60.85 228.42 60.84 227.55 60.86 226.7 61.01 225.88 61.3 221.4 62.88 218.42 67.15 218.48 71.9L218.48 94.9C218.48 95.16 218.27 95.37 218.01 95.37L205.84 95.37C205.58 95.37 205.37 95.16 205.37 94.9L205.37 94.9 205.37 50.15C205.37 49.89 205.58 49.68 205.84 49.68L218.01 49.68C218.27 49.68 218.48 49.89 218.48 50.15L218.48 50.15 218.48 54.87C218.48 54.87 218.5 54.92 218.53 54.92 218.56 54.92 218.58 54.9 218.58 54.87 220.99 51.18 225.04 48.89 229.45 48.72 231.29 48.66 233.12 48.92 234.86 49.5 234.97 49.53 235.04 49.65 235.01 49.76Z" fill="#FFFFFF"/><path d="M283.45 50.15 283.45 94.85C283.45 95.11 283.24 95.32 282.98 95.32L270.8 95.32C270.54 95.32 270.34 95.11 270.34 94.85L270.34 90.13C270.34 90.13 270.32 90.08 270.29 90.08 270.26 90.08 270.24 90.1 270.24 90.13 267.94 93.75 262.54 96.28 256.86 96.28 244.97 96.28 235.58 85.68 235.58 72.48 235.58 59.28 244.97 48.78 256.86 48.78 262.45 48.78 267.94 51.31 270.24 54.93 270.24 54.96 270.26 54.98 270.29 54.98 270.32 54.98 270.34 54.96 270.34 54.93L270.34 50.15C270.34 49.89 270.54 49.69 270.8 49.68L282.98 49.68C283.24 49.68 283.45 49.89 283.45 50.15L283.45 50.15ZM270.34 78.05 270.34 67.05C270.34 67.05 270.35 66.96 270.34 66.92 268.05 63.3 264.06 61.11 259.77 61.12 253.51 61.12 248.43 66.2 248.43 72.46 248.43 78.72 253.51 83.8 259.77 83.8 264.02 83.85 267.99 81.73 270.33 78.19 270.35 78.15 270.35 78.1 270.34 78.05Z" fill="#FFFFFF"/><path d="M26.78 42.48C15.05 42.48 5.54 32.97 5.54 21.24 5.54 9.51 15.05 0 26.78 0 38.51 0 48.02 9.51 48.02 21.24L48.02 21.24C48 32.96 38.5 42.46 26.78 42.48ZM26.78 13.17C22.32 13.17 18.71 16.78 18.71 21.24 18.71 25.7 22.32 29.31 26.78 29.31 31.24 29.31 34.85 25.7 34.85 21.24 34.85 16.79 31.23 13.18 26.78 13.17Z" fill="#FFFFFF"/><path d="M53.58 75.11C53.58 60.31 41.58 48.32 26.79 48.32 11.99 48.33 0 60.32 0 75.11L0 75.11 0 94.85C0 95.1 0.2 95.31 0.45 95.32 0.55 95.32 0.65 95.29 0.74 95.22L12.99 86.11C13.1 86.02 13.17 85.88 13.17 85.74L13.17 75.11 13.17 75.11C13.37 67.59 19.63 61.66 27.15 61.86 34.38 62.06 40.2 67.87 40.4 75.11L40.4 75.11 40.4 94.85C40.4 95.11 40.61 95.32 40.87 95.32L53.11 95.32C53.37 95.32 53.58 95.11 53.58 94.85L53.58 94.85 53.58 75.11Z" fill="#FFFFFF"/><path d="M55.53 126.88 47.72 126.88 47.72 113.32 55.53 113.32 55.53 115.68 50.64 115.68 50.64 118.68 55.23 118.68 55.23 121.03 50.64 121.03 50.64 124.53 55.57 124.53 55.53 126.88Z" fill="#FFFFFF"/><path d="M62.26 124.82C62.87 124.8 63.47 124.69 64.04 124.49L64.04 126.6C63.22 126.93 62.34 127.09 61.45 127.07 60.54 127.15 59.64 126.84 58.97 126.21 58.41 125.48 58.13 124.56 58.2 123.64L58.2 118.64 56.84 118.64 56.84 117.44 58.4 116.49 59.22 114.3 61.03 114.3 61.03 116.51 63.93 116.51 63.93 118.64 61.03 118.64 61.03 123.64C61 123.97 61.13 124.3 61.37 124.53 61.62 124.73 61.94 124.84 62.26 124.82Z" fill="#FFFFFF"/><path d="M70.51 124.82C71.12 124.8 71.72 124.69 72.29 124.49L72.29 126.6C71.47 126.93 70.58 127.1 69.69 127.07 68.78 127.15 67.88 126.84 67.22 126.21 66.66 125.48 66.38 124.56 66.45 123.64L66.45 118.64 65.09 118.64 65.09 117.44 66.65 116.49 67.47 114.3 69.28 114.3 69.28 116.51 72.18 116.51 72.18 118.64 69.28 118.64 69.28 123.64C69.25 123.97 69.38 124.3 69.62 124.53 69.87 124.73 70.19 124.84 70.51 124.82Z" fill="#FFFFFF"/><path d="M84.64 118.64 82.15 118.64 82.15 126.88 79.32 126.88 79.32 118.64 77.76 118.64 77.76 117.27 79.32 116.51 79.32 115.75C79.24 114.8 79.55 113.86 80.19 113.16 80.99 112.55 81.99 112.26 82.99 112.35 83.88 112.33 84.76 112.48 85.59 112.78L84.87 114.86C84.36 114.69 83.83 114.6 83.29 114.59 82.96 114.56 82.63 114.69 82.42 114.95 82.23 115.22 82.14 115.54 82.15 115.86L82.15 116.51 84.64 116.51 84.64 118.64Z" fill="#FFFFFF"/><path d="M95.45 121.68C95.55 123.14 95.07 124.57 94.12 125.68 93.14 126.67 91.79 127.19 90.4 127.11 89.48 127.13 88.57 126.9 87.76 126.46 87 126.02 86.39 125.37 86.01 124.58 85.59 123.69 85.38 122.71 85.4 121.72 85.3 120.27 85.77 118.83 86.72 117.72 87.71 116.74 89.06 116.23 90.45 116.31 91.37 116.29 92.28 116.51 93.09 116.96 93.85 117.39 94.46 118.04 94.84 118.82 95.27 119.71 95.48 120.69 95.45 121.68ZM87.24 113.85C87.24 113.51 87.39 113.18 87.64 112.95 87.9 112.73 88.24 112.61 88.58 112.63 88.95 112.6 89.31 112.72 89.58 112.97 89.82 113.21 89.95 113.54 89.93 113.88 89.94 114.22 89.82 114.54 89.58 114.78 89.31 115.02 88.94 115.14 88.58 115.11 88.24 115.13 87.9 115.02 87.64 114.79 87.37 114.55 87.23 114.21 87.24 113.85ZM88.24 121.68C88.19 122.49 88.37 123.3 88.75 124.01 89.12 124.55 89.75 124.85 90.4 124.8 91.04 124.85 91.67 124.55 92.02 124.01 92.4 123.29 92.57 122.49 92.52 121.68 92.57 120.88 92.4 120.08 92.02 119.37 91.27 118.46 89.93 118.34 89.02 119.09 88.92 119.17 88.82 119.27 88.74 119.37 88.38 120.08 88.22 120.88 88.28 121.68L88.24 121.68ZM90.94 113.85C90.89 113.47 91.04 113.1 91.32 112.85 91.59 112.64 91.91 112.54 92.25 112.55 92.61 112.52 92.97 112.64 93.25 112.88 93.5 113.12 93.63 113.46 93.61 113.8 93.63 114.14 93.5 114.47 93.25 114.7 92.97 114.94 92.61 115.06 92.25 115.03 91.91 115.04 91.59 114.94 91.32 114.73 91.08 114.5 90.96 114.18 90.98 113.85L90.94 113.85Z" fill="#FFFFFF"/><path d="M103.25 116.32C103.59 116.32 103.92 116.34 104.25 116.4L104.04 119.05C103.76 118.98 103.48 118.95 103.2 118.96 102.43 118.91 101.68 119.17 101.09 119.66 100.56 120.18 100.28 120.92 100.34 121.66L100.34 126.93 97.46 126.93 97.46 116.51 99.64 116.51 100.06 118.26 100.2 118.26C100.51 117.69 100.96 117.2 101.5 116.85 102.02 116.51 102.63 116.33 103.25 116.32Z" fill="#FFFFFF"/><path d="M110.43 127.07C108.99 127.15 107.58 126.66 106.52 125.69 105.53 124.63 105.02 123.22 105.11 121.77 105.02 120.32 105.49 118.89 106.41 117.77 108.37 115.96 111.37 115.89 113.41 117.6 114.26 118.54 114.7 119.79 114.63 121.06L114.63 122.43 107.94 122.43C107.93 123.13 108.18 123.81 108.66 124.32 109.16 124.79 109.84 125.03 110.53 124.99 111.13 124.99 111.72 124.93 112.3 124.8 112.9 124.65 113.49 124.45 114.05 124.18L114.05 126.37C113.55 126.62 113.01 126.8 112.46 126.92 111.79 127.04 111.11 127.09 110.43 127.07ZM110.03 118.33C109.5 118.32 108.99 118.55 108.64 118.95 108.27 119.41 108.07 119.98 108.06 120.57L112.06 120.57C112.09 119.98 111.89 119.4 111.51 118.95 111.14 118.53 110.59 118.3 110.03 118.33Z" fill="#FFFFFF"/><path d="M121.1 124.82C121.71 124.8 122.31 124.69 122.89 124.49L122.89 126.6C122.06 126.93 121.18 127.09 120.29 127.07 119.38 127.15 118.48 126.84 117.82 126.21 117.25 125.48 116.97 124.56 117.04 123.64L117.04 118.64 115.69 118.64 115.69 117.44 117.24 116.49 118.06 114.3 119.87 114.3 119.87 116.51 122.77 116.51 122.77 118.64 119.87 118.64 119.87 123.64C119.84 123.97 119.97 124.3 120.21 124.53 120.46 124.73 120.78 124.84 121.1 124.82Z" fill="#FFFFFF"/><path d="M131.43 126.88 130.89 125.47 130.81 125.47C130.43 126 129.92 126.43 129.34 126.72 128.71 126.98 128.02 127.1 127.34 127.07 126.47 127.12 125.62 126.81 124.99 126.22 124.38 125.56 124.07 124.68 124.13 123.79 124.06 122.83 124.5 121.9 125.29 121.35 126.35 120.75 127.55 120.45 128.77 120.48L130.57 120.48 130.57 119.95C130.67 119.18 130.12 118.47 129.35 118.37 129.22 118.35 129.08 118.36 128.95 118.37 127.94 118.42 126.94 118.67 126.03 119.12L125.09 117.21C126.33 116.57 127.7 116.25 129.09 116.27 130.23 116.19 131.36 116.52 132.29 117.18 133.07 117.88 133.48 118.9 133.4 119.94L133.4 126.85 131.43 126.87ZM130.6 122.08 129.5 122.08C128.86 122.05 128.23 122.21 127.67 122.52 127.26 122.8 127.03 123.27 127.06 123.76 127.06 124.56 127.52 124.96 128.44 124.96 129.02 124.99 129.58 124.79 130.01 124.4 130.41 124.02 130.64 123.5 130.64 122.95L130.6 122.08Z" fill="#FFFFFF"/><path d="M145.04 116.51 145.04 117.95 143.42 118.37C143.72 118.83 143.88 119.38 143.87 119.93 143.92 120.93 143.48 121.9 142.7 122.53 141.76 123.2 140.62 123.53 139.47 123.46L138.54 123.46C138.28 123.62 138.12 123.9 138.1 124.2 138.1 124.61 138.62 124.81 139.66 124.81L141.43 124.81C142.35 124.75 143.27 125.01 144.03 125.54 144.65 126.08 144.97 126.88 144.92 127.7 144.96 128.84 144.38 129.92 143.41 130.52 142.08 131.26 140.57 131.61 139.05 131.52 137.89 131.59 136.74 131.33 135.73 130.76 135 130.31 134.56 129.5 134.59 128.64 134.57 128.06 134.78 127.5 135.17 127.08 135.64 126.62 136.24 126.3 136.89 126.18 136.59 126.05 136.33 125.83 136.13 125.57 135.92 125.32 135.8 125 135.8 124.67 135.79 124.3 135.91 123.95 136.15 123.67 136.44 123.36 136.78 123.1 137.15 122.9 136.61 122.67 136.16 122.27 135.86 121.77 135.53 121.21 135.36 120.58 135.38 119.93 135.32 118.93 135.73 117.97 136.48 117.31 137.39 116.64 138.51 116.31 139.64 116.38 139.97 116.38 140.31 116.41 140.64 116.46L141.41 116.57 145.04 116.51ZM137.04 128.35C137.04 128.74 137.25 129.1 137.6 129.27 138.09 129.52 138.63 129.63 139.17 129.6 139.99 129.64 140.8 129.5 141.56 129.19 142.05 129.02 142.39 128.57 142.42 128.05 142.45 127.7 142.24 127.37 141.91 127.24 141.4 127.06 140.87 126.98 140.33 127.01L138.87 127.01C138.41 127 137.95 127.13 137.56 127.38 137.23 127.59 137.04 127.96 137.04 128.35ZM138.04 119.91C138.01 120.38 138.15 120.85 138.42 121.24 138.71 121.59 139.15 121.77 139.6 121.74 140.05 121.78 140.48 121.59 140.76 121.24 141.03 120.85 141.17 120.38 141.14 119.91 141.14 118.66 140.62 118.03 139.6 118.03 138.58 118.03 138.07 118.66 138.07 119.95L138.04 119.91Z" fill="#FFFFFF"/><path d="M151.11 113.83C151.11 112.91 151.62 112.45 152.65 112.45 153.68 112.45 154.19 112.91 154.19 113.83 154.2 114.2 154.06 114.56 153.8 114.83 153.48 115.09 153.07 115.22 152.65 115.19 151.64 115.22 151.11 114.76 151.11 113.83ZM154.06 126.88 151.23 126.88 151.23 116.51 154.06 116.51 154.06 126.88Z" fill="#FFFFFF"/><path d="M166.21 126.88 163.38 126.88 163.38 120.83C163.42 120.24 163.28 119.65 162.98 119.14 162.68 118.75 162.2 118.54 161.71 118.58 161.04 118.53 160.38 118.83 159.99 119.38 159.57 120.19 159.39 121.09 159.46 122L159.46 126.88 156.64 126.88 156.64 116.51 158.8 116.51 159.19 117.84 159.34 117.84C159.65 117.34 160.11 116.94 160.65 116.7 161.24 116.44 161.88 116.31 162.53 116.32 163.55 116.25 164.55 116.61 165.28 117.32 165.95 118.1 166.29 119.11 166.22 120.14L166.22 126.88Z" fill="#FFFFFF"/><path d="M178.22 121.68C178.32 123.14 177.83 124.57 176.88 125.68 175.9 126.67 174.55 127.19 173.16 127.11 172.24 127.13 171.33 126.9 170.52 126.46 169.76 126.02 169.15 125.37 168.77 124.58 168.35 123.69 168.14 122.71 168.16 121.72 168.06 120.26 168.53 118.82 169.49 117.72 170.47 116.74 171.83 116.22 173.22 116.31 174.14 116.29 175.05 116.51 175.85 116.96 176.61 117.39 177.22 118.04 177.6 118.82 178.03 119.71 178.24 120.69 178.22 121.68ZM171.04 121.68C170.99 122.49 171.17 123.3 171.55 124.01 171.92 124.55 172.55 124.85 173.2 124.8 173.85 124.85 174.47 124.55 174.83 124.01 175.2 123.29 175.37 122.49 175.32 121.68 175.37 120.88 175.2 120.08 174.82 119.37 174.07 118.47 172.74 118.34 171.84 119.08 171.74 119.17 171.64 119.26 171.55 119.37 171.16 120.08 170.99 120.88 171.04 121.68L171.04 121.68Z" fill="#FFFFFF"/><path d="M189.5 126.88 186.64 126.88 186.64 120.83C186.68 120.24 186.55 119.66 186.27 119.14 186 118.76 185.55 118.55 185.09 118.58 184.46 118.53 183.85 118.84 183.51 119.38 183.12 120.2 182.95 121.1 183.02 122L183.02 126.88 180.19 126.88 180.19 116.51 182.35 116.51 182.73 117.84 182.89 117.84C183.17 117.36 183.59 116.97 184.09 116.72 184.65 116.44 185.27 116.31 185.9 116.32 187.16 116.17 188.39 116.76 189.06 117.84L189.31 117.84C189.6 117.35 190.03 116.96 190.54 116.72 191.11 116.44 191.74 116.31 192.37 116.32 193.34 116.25 194.31 116.57 195.04 117.22 195.71 118.03 196.03 119.07 195.94 120.12L195.94 126.88 193.1 126.88 193.1 120.83C193.14 120.24 193.01 119.66 192.73 119.14 192.46 118.76 192.01 118.55 191.54 118.58 190.93 118.54 190.34 118.82 189.99 119.32 189.59 120.04 189.41 120.86 189.47 121.68L189.5 126.88Z" fill="#FFFFFF"/><path d="M211.58 123.12C211.63 124.24 211.14 125.31 210.26 126.01 209.19 126.78 207.89 127.15 206.58 127.07 205.25 127.1 203.94 126.82 202.74 126.25L202.74 123.58C203.49 123.93 204.27 124.22 205.07 124.45 205.64 124.6 206.22 124.69 206.81 124.7 207.32 124.73 207.83 124.6 208.26 124.33 208.6 124.08 208.78 123.68 208.76 123.26 208.76 123.01 208.69 122.76 208.54 122.55 208.36 122.31 208.14 122.11 207.89 121.95 207.32 121.61 206.73 121.3 206.13 121.03 205.46 120.74 204.83 120.36 204.26 119.91 203.85 119.56 203.51 119.13 203.26 118.66 203 118.14 202.88 117.57 202.89 116.99 202.84 115.91 203.29 114.86 204.11 114.16 205.08 113.43 206.27 113.07 207.48 113.16 208.15 113.16 208.83 113.24 209.48 113.41 210.16 113.59 210.83 113.82 211.48 114.11L210.55 116.35C209.97 116.1 209.37 115.89 208.76 115.73 208.3 115.61 207.83 115.55 207.36 115.55 206.91 115.52 206.47 115.66 206.11 115.93 205.82 116.18 205.66 116.55 205.67 116.93 205.67 117.17 205.73 117.4 205.85 117.6 205.99 117.82 206.18 118.01 206.41 118.14 206.99 118.5 207.6 118.81 208.23 119.09 209.22 119.5 210.12 120.12 210.84 120.92 211.33 121.55 211.59 122.32 211.58 123.12Z" fill="#FFFFFF"/><path d="M224.77 126.88 221.5 126.88 217.95 121.17 216.73 122.04 216.73 126.88 213.86 126.88 213.86 113.32 216.73 113.32 216.73 119.53 217.86 117.93 221.54 113.32 224.73 113.32 220 119.32 224.77 126.88Z" fill="#FFFFFF"/><path d="M229.34 121.68 229.34 126.88 226.46 126.88 226.46 113.32 230.46 113.32C231.9 113.21 233.33 113.56 234.55 114.32 236.03 115.64 236.31 117.85 235.22 119.5 234.75 120.15 234.1 120.66 233.36 120.96 235.4 124.01 236.73 125.98 237.36 126.87L234.17 126.87 230.93 121.67 229.34 121.67ZM229.34 119.35 230.27 119.35C230.97 119.4 231.66 119.24 232.27 118.9 232.72 118.57 232.96 118.03 232.92 117.47 232.97 116.92 232.71 116.4 232.25 116.1 231.62 115.78 230.91 115.64 230.2 115.69L229.33 115.69 229.33 119.35Z" fill="#FFFFFF"/></svg>