<?xml version="1.0"  encoding="UTF-8" standalone="no"?>
<svg version="1.1" xmlns="http://www.w3.org/2000/svg" xmlns:xlink="http://www.w3.org/1999/xlink" viewBox="0 0 877.0000 374.0000" width="877" height="374">
<g transform="translate(-0.0000, -0.0000)">
<g transform="matrix(0.0625 0.0000 0.0000 0.0625 0.0000 0.0000)">
<path d="M 1313.0000,132.0000 L 1313.0000,812.0000 L 2673.0000,812.0000 L 2673.0000,132.0000 L 1313.0000,132.0000 Z" stroke-width="1px" stroke="#5B9BD5"  fill="#5B9BD5" />
</g>
<g transform="matrix(1.0000 0.0000 0.0000 1.0000 0.0000 0.0000)">
</g>
<g transform="matrix(0.0625 0.0000 0.0000 0.0625 0.0000 0.0000)">
<path d="M 1313.0000,812.0000 L 2673.0000,812.0000 L 2673.0000,132.0000 L 1313.0000,132.0000 L 1313.0000,812.0000 Z" stroke="#FFFFFF" stroke-width="13.0000"  stroke-linecap="round"  stroke-linejoin="round" fill="none" />
</g>
<g transform="matrix(1.0000 0.0000 0.0000 1.0000 0.0000 0.0000)">
</g>
<g transform="matrix(0.0625 0.0000 0.0000 0.0625 0.0000 0.0000)">
<path d="M 2001.0000,812.0000 L 2001.0000,924.0000 C 2001.0000,928.0000 1997.0000,932.0000 1993.0000,932.0000 C 1989.0000,932.0000 1985.0000,928.0000 1985.0000,924.0000 L 1985.0000,812.0000 C 1985.0000,808.0000 1989.0000,804.0000 1993.0000,804.0000 C 1997.0000,804.0000 2001.0000,808.0000 2001.0000,812.0000 Z M 2001.0000,1004.0000 L 2001.0000,1116.0000 C 2001.0000,1120.0000 1997.0000,1124.0000 1993.0000,1124.0000 C 1989.0000,1124.0000 1985.0000,1120.0000 1985.0000,1116.0000 L 1985.0000,1004.0000 C 1985.0000,1000.0000 1989.0000,996.0000 1993.0000,996.0000 C 1997.0000,996.0000 2001.0000,1000.0000 2001.0000,1004.0000 Z M 2001.0000,1196.0000 L 2001.0000,1308.0000 C 2001.0000,1312.0000 1997.0000,1316.0000 1993.0000,1316.0000 C 1989.0000,1316.0000 1985.0000,1312.0000 1985.0000,1308.0000 L 1985.0000,1196.0000 C 1985.0000,1192.0000 1989.0000,1188.0000 1993.0000,1188.0000 C 1997.0000,1188.0000 2001.0000,1192.0000 2001.0000,1196.0000 Z M 2001.0000,1388.0000 L 2001.0000,1500.0000 C 2001.0000,1504.0000 1997.0000,1508.0000 1993.0000,1508.0000 C 1989.0000,1508.0000 1985.0000,1504.0000 1985.0000,1500.0000 L 1985.0000,1388.0000 C 1985.0000,1384.0000 1989.0000,1380.0000 1993.0000,1380.0000 C 1997.0000,1380.0000 2001.0000,1384.0000 2001.0000,1388.0000 Z M 2001.0000,1580.0000 L 2001.0000,1692.0000 C 2001.0000,1696.0000 1997.0000,1700.0000 1993.0000,1700.0000 C 1989.0000,1700.0000 1985.0000,1696.0000 1985.0000,1692.0000 L 1985.0000,1580.0000 C 1985.0000,1576.0000 1989.0000,1572.0000 1993.0000,1572.0000 C 1997.0000,1572.0000 2001.0000,1576.0000 2001.0000,1580.0000 Z M 2001.0000,1772.0000 L 2001.0000,1884.0000 C 2001.0000,1888.0000 1997.0000,1892.0000 1993.0000,1892.0000 C 1989.0000,1892.0000 1985.0000,1888.0000 1985.0000,1884.0000 L 1985.0000,1772.0000 C 1985.0000,1768.0000 1989.0000,1764.0000 1993.0000,1764.0000 C 1997.0000,1764.0000 2001.0000,1768.0000 2001.0000,1772.0000 Z M 2001.0000,1964.0000 L 2001.0000,2076.0000 C 2001.0000,2080.0000 1997.0000,2084.0000 1993.0000,2084.0000 C 1989.0000,2084.0000 1985.0000,2080.0000 1985.0000,2076.0000 L 1985.0000,1964.0000 C 1985.0000,1960.0000 1989.0000,1956.0000 1993.0000,1956.0000 C 1997.0000,1956.0000 2001.0000,1960.0000 2001.0000,1964.0000 Z M 2001.0000,2156.0000 L 2001.0000,2268.0000 C 2001.0000,2272.0000 1997.0000,2276.0000 1993.0000,2276.0000 C 1989.0000,2276.0000 1985.0000,2272.0000 1985.0000,2268.0000 L 1985.0000,2156.0000 C 1985.0000,2152.0000 1989.0000,2148.0000 1993.0000,2148.0000 C 1997.0000,2148.0000 2001.0000,2152.0000 2001.0000,2156.0000 Z M 2001.0000,2348.0000 L 2001.0000,2460.0000 C 2001.0000,2464.0000 1997.0000,2468.0000 1993.0000,2468.0000 C 1989.0000,2468.0000 1985.0000,2464.0000 1985.0000,2460.0000 L 1985.0000,2348.0000 C 1985.0000,2344.0000 1989.0000,2340.0000 1993.0000,2340.0000 C 1997.0000,2340.0000 2001.0000,2344.0000 2001.0000,2348.0000 Z M 2001.0000,2540.0000 L 2001.0000,2652.0000 C 2001.0000,2656.0000 1997.0000,2660.0000 1993.0000,2660.0000 C 1989.0000,2660.0000 1985.0000,2656.0000 1985.0000,2652.0000 L 1985.0000,2540.0000 C 1985.0000,2536.0000 1989.0000,2532.0000 1993.0000,2532.0000 C 1997.0000,2532.0000 2001.0000,2536.0000 2001.0000,2540.0000 Z M 2001.0000,2732.0000 L 2001.0000,2844.0000 C 2001.0000,2848.0000 1997.0000,2852.0000 1993.0000,2852.0000 C 1989.0000,2852.0000 1985.0000,2848.0000 1985.0000,2844.0000 L 1985.0000,2732.0000 C 1985.0000,2728.0000 1989.0000,2724.0000 1993.0000,2724.0000 C 1997.0000,2724.0000 2001.0000,2728.0000 2001.0000,2732.0000 Z M 2001.0000,2924.0000 L 2001.0000,3036.0000 C 2001.0000,3040.0000 1997.0000,3044.0000 1993.0000,3044.0000 C 1989.0000,3044.0000 1985.0000,3040.0000 1985.0000,3036.0000 L 1985.0000,2924.0000 C 1985.0000,2920.0000 1989.0000,2916.0000 1993.0000,2916.0000 C 1997.0000,2916.0000 2001.0000,2920.0000 2001.0000,2924.0000 Z M 2001.0000,3116.0000 L 2001.0000,3228.0000 C 2001.0000,3232.0000 1997.0000,3236.0000 1993.0000,3236.0000 C 1989.0000,3236.0000 1985.0000,3232.0000 1985.0000,3228.0000 L 1985.0000,3116.0000 C 1985.0000,3112.0000 1989.0000,3108.0000 1993.0000,3108.0000 C 1997.0000,3108.0000 2001.0000,3112.0000 2001.0000,3116.0000 Z M 2001.0000,3308.0000 L 2001.0000,3420.0000 C 2001.0000,3424.0000 1997.0000,3428.0000 1993.0000,3428.0000 C 1989.0000,3428.0000 1985.0000,3424.0000 1985.0000,3420.0000 L 1985.0000,3308.0000 C 1985.0000,3304.0000 1989.0000,3300.0000 1993.0000,3300.0000 C 1997.0000,3300.0000 2001.0000,3304.0000 2001.0000,3308.0000 Z M 2001.0000,3500.0000 L 2001.0000,3612.0000 C 2001.0000,3616.0000 1997.0000,3620.0000 1993.0000,3620.0000 C 1989.0000,3620.0000 1985.0000,3616.0000 1985.0000,3612.0000 L 1985.0000,3500.0000 C 1985.0000,3496.0000 1989.0000,3492.0000 1993.0000,3492.0000 C 1997.0000,3492.0000 2001.0000,3496.0000 2001.0000,3500.0000 Z M 2001.0000,3692.0000 L 2001.0000,3804.0000 C 2001.0000,3808.0000 1997.0000,3812.0000 1993.0000,3812.0000 C 1989.0000,3812.0000 1985.0000,3808.0000 1985.0000,3804.0000 L 1985.0000,3692.0000 C 1985.0000,3688.0000 1989.0000,3684.0000 1993.0000,3684.0000 C 1997.0000,3684.0000 2001.0000,3688.0000 2001.0000,3692.0000 Z M 2001.0000,3884.0000 L 2001.0000,3996.0000 C 2001.0000,4000.0000 1997.0000,4004.0000 1993.0000,4004.0000 C 1989.0000,4004.0000 1985.0000,4000.0000 1985.0000,3996.0000 L 1985.0000,3884.0000 C 1985.0000,3880.0000 1989.0000,3876.0000 1993.0000,3876.0000 C 1997.0000,3876.0000 2001.0000,3880.0000 2001.0000,3884.0000 Z M 2001.0000,4076.0000 L 2001.0000,4188.0000 C 2001.0000,4192.0000 1997.0000,4196.0000 1993.0000,4196.0000 C 1989.0000,4196.0000 1985.0000,4192.0000 1985.0000,4188.0000 L 1985.0000,4076.0000 C 1985.0000,4072.0000 1989.0000,4068.0000 1993.0000,4068.0000 C 1997.0000,4068.0000 2001.0000,4072.0000 2001.0000,4076.0000 Z M 2001.0000,4268.0000 L 2001.0000,4380.0000 C 2001.0000,4384.0000 1997.0000,4388.0000 1993.0000,4388.0000 C 1989.0000,4388.0000 1985.0000,4384.0000 1985.0000,4380.0000 L 1985.0000,4268.0000 C 1985.0000,4264.0000 1989.0000,4260.0000 1993.0000,4260.0000 C 1997.0000,4260.0000 2001.0000,4264.0000 2001.0000,4268.0000 Z M 2001.0000,4460.0000 L 2001.0000,4572.0000 C 2001.0000,4576.0000 1997.0000,4580.0000 1993.0000,4580.0000 C 1989.0000,4580.0000 1985.0000,4576.0000 1985.0000,4572.0000 L 1985.0000,4460.0000 C 1985.0000,4456.0000 1989.0000,4452.0000 1993.0000,4452.0000 C 1997.0000,4452.0000 2001.0000,4456.0000 2001.0000,4460.0000 Z M 2001.0000,4652.0000 L 2001.0000,4764.0000 C 2001.0000,4768.0000 1997.0000,4772.0000 1993.0000,4772.0000 C 1989.0000,4772.0000 1985.0000,4768.0000 1985.0000,4764.0000 L 1985.0000,4652.0000 C 1985.0000,4648.0000 1989.0000,4644.0000 1993.0000,4644.0000 C 1997.0000,4644.0000 2001.0000,4648.0000 2001.0000,4652.0000 Z M 2001.0000,4844.0000 L 2001.0000,4956.0000 C 2001.0000,4960.0000 1997.0000,4964.0000 1993.0000,4964.0000 C 1989.0000,4964.0000 1985.0000,4960.0000 1985.0000,4956.0000 L 1985.0000,4844.0000 C 1985.0000,4840.0000 1989.0000,4836.0000 1993.0000,4836.0000 C 1997.0000,4836.0000 2001.0000,4840.0000 2001.0000,4844.0000 Z M 2001.0000,5036.0000 L 2001.0000,5148.0000 C 2001.0000,5152.0000 1997.0000,5156.0000 1993.0000,5156.0000 C 1989.0000,5156.0000 1985.0000,5152.0000 1985.0000,5148.0000 L 1985.0000,5036.0000 C 1985.0000,5032.0000 1989.0000,5028.0000 1993.0000,5028.0000 C 1997.0000,5028.0000 2001.0000,5032.0000 2001.0000,5036.0000 Z M 2001.0000,5228.0000 L 2001.0000,5340.0000 C 2001.0000,5344.0000 1997.0000,5348.0000 1993.0000,5348.0000 C 1989.0000,5348.0000 1985.0000,5344.0000 1985.0000,5340.0000 L 1985.0000,5228.0000 C 1985.0000,5224.0000 1989.0000,5220.0000 1993.0000,5220.0000 C 1997.0000,5220.0000 2001.0000,5224.0000 2001.0000,5228.0000 Z M 2001.0000,5420.0000 L 2001.0000,5532.0000 C 2001.0000,5536.0000 1997.0000,5540.0000 1993.0000,5540.0000 C 1989.0000,5540.0000 1985.0000,5536.0000 1985.0000,5532.0000 L 1985.0000,5420.0000 C 1985.0000,5416.0000 1989.0000,5412.0000 1993.0000,5412.0000 C 1997.0000,5412.0000 2001.0000,5416.0000 2001.0000,5420.0000 Z M 2001.0000,5612.0000 L 2001.0000,5724.0000 C 2001.0000,5728.0000 1997.0000,5732.0000 1993.0000,5732.0000 C 1989.0000,5732.0000 1985.0000,5728.0000 1985.0000,5724.0000 L 1985.0000,5612.0000 C 1985.0000,5608.0000 1989.0000,5604.0000 1993.0000,5604.0000 C 1997.0000,5604.0000 2001.0000,5608.0000 2001.0000,5612.0000 Z M 2001.0000,5804.0000 L 2001.0000,5916.0000 C 2001.0000,5920.0000 1997.0000,5924.0000 1993.0000,5924.0000 C 1989.0000,5924.0000 1985.0000,5920.0000 1985.0000,5916.0000 L 1985.0000,5804.0000 C 1985.0000,5800.0000 1989.0000,5796.0000 1993.0000,5796.0000 C 1997.0000,5796.0000 2001.0000,5800.0000 2001.0000,5804.0000 Z Z "  fill="#9C9C9C" stroke="#9C9C9C" stroke-width="16.0000"  stroke-linecap="butt"  stroke-linejoin="bevel" />
</g>
<g transform="matrix(1.0000 0.0000 0.0000 1.0000 0.0000 0.0000)">
</g>
<g transform="matrix(0.0625 0.0000 0.0000 0.0625 0.0000 0.0000)">
<path d="M 37.0000,132.0000 L 37.0000,812.0000 L 3949.0000,812.0000 L 3949.0000,132.0000 L 37.0000,132.0000 Z" stroke-width="1px" stroke="#5B9BD5"  fill="#5B9BD5" />
</g>
<g transform="matrix(1.0000 0.0000 0.0000 1.0000 0.0000 0.0000)">
</g>
<g transform="matrix(0.0625 0.0000 0.0000 0.0625 0.0000 0.0000)">
<path d="M 37.0000,812.0000 L 3949.0000,812.0000 L 3949.0000,132.0000 L 37.0000,132.0000 L 37.0000,812.0000 Z" stroke="#FFFFFF" stroke-width="13.0000"  stroke-linecap="round"  stroke-linejoin="round" fill="none" />
</g>
<g transform="matrix(1.0000 0.0000 0.0000 1.0000 0.0000 0.0000)">
<text font-family="Segoe UI" fill="#FFFFFF" style ="white-space:pre;" font-weight="700" text-anchor="start" x="46.0000" y="35.0000" font-size="20.0000" ><![CDATA[Lokal spärrtjänst]]></text>
</g>
<g transform="matrix(0.0625 0.0000 0.0000 0.0625 0.0000 0.0000)">
<path d="M 6084.0000,132.0000 L 6084.0000,812.0000 L 7445.0000,812.0000 L 7445.0000,132.0000 L 6084.0000,132.0000 Z" stroke-width="1px" stroke="#5B9BD5"  fill="#5B9BD5" />
</g>
<g transform="matrix(1.0000 0.0000 0.0000 1.0000 0.0000 0.0000)">
</g>
<g transform="matrix(0.0625 0.0000 0.0000 0.0625 0.0000 0.0000)">
<path d="M 6084.0000,812.0000 L 7445.0000,812.0000 L 7445.0000,132.0000 L 6084.0000,132.0000 L 6084.0000,812.0000 Z" stroke="#FFFFFF" stroke-width="13.0000"  stroke-linecap="round"  stroke-linejoin="round" fill="none" />
</g>
<g transform="matrix(1.0000 0.0000 0.0000 1.0000 0.0000 0.0000)">
</g>
<g transform="matrix(0.0625 0.0000 0.0000 0.0625 0.0000 0.0000)">
<path d="M 6773.0000,812.0000 L 6773.0000,924.0000 C 6773.0000,928.0000 6769.0000,932.0000 6765.0000,932.0000 C 6760.0000,932.0000 6757.0000,928.0000 6757.0000,924.0000 L 6757.0000,812.0000 C 6757.0000,808.0000 6760.0000,804.0000 6765.0000,804.0000 C 6769.0000,804.0000 6773.0000,808.0000 6773.0000,812.0000 Z M 6773.0000,1004.0000 L 6773.0000,1116.0000 C 6773.0000,1120.0000 6769.0000,1124.0000 6765.0000,1124.0000 C 6760.0000,1124.0000 6757.0000,1120.0000 6757.0000,1116.0000 L 6757.0000,1004.0000 C 6757.0000,1000.0000 6760.0000,996.0000 6765.0000,996.0000 C 6769.0000,996.0000 6773.0000,1000.0000 6773.0000,1004.0000 Z M 6773.0000,1196.0000 L 6773.0000,1308.0000 C 6773.0000,1312.0000 6769.0000,1316.0000 6765.0000,1316.0000 C 6760.0000,1316.0000 6757.0000,1312.0000 6757.0000,1308.0000 L 6757.0000,1196.0000 C 6757.0000,1192.0000 6760.0000,1188.0000 6765.0000,1188.0000 C 6769.0000,1188.0000 6773.0000,1192.0000 6773.0000,1196.0000 Z M 6773.0000,1388.0000 L 6773.0000,1500.0000 C 6773.0000,1504.0000 6769.0000,1508.0000 6765.0000,1508.0000 C 6760.0000,1508.0000 6757.0000,1504.0000 6757.0000,1500.0000 L 6757.0000,1388.0000 C 6757.0000,1384.0000 6760.0000,1380.0000 6765.0000,1380.0000 C 6769.0000,1380.0000 6773.0000,1384.0000 6773.0000,1388.0000 Z M 6773.0000,1580.0000 L 6773.0000,1692.0000 C 6773.0000,1696.0000 6769.0000,1700.0000 6765.0000,1700.0000 C 6760.0000,1700.0000 6757.0000,1696.0000 6757.0000,1692.0000 L 6757.0000,1580.0000 C 6757.0000,1576.0000 6760.0000,1572.0000 6765.0000,1572.0000 C 6769.0000,1572.0000 6773.0000,1576.0000 6773.0000,1580.0000 Z M 6773.0000,1772.0000 L 6773.0000,1884.0000 C 6773.0000,1888.0000 6769.0000,1892.0000 6765.0000,1892.0000 C 6760.0000,1892.0000 6757.0000,1888.0000 6757.0000,1884.0000 L 6757.0000,1772.0000 C 6757.0000,1768.0000 6760.0000,1764.0000 6765.0000,1764.0000 C 6769.0000,1764.0000 6773.0000,1768.0000 6773.0000,1772.0000 Z M 6773.0000,1964.0000 L 6773.0000,2076.0000 C 6773.0000,2080.0000 6769.0000,2084.0000 6765.0000,2084.0000 C 6760.0000,2084.0000 6757.0000,2080.0000 6757.0000,2076.0000 L 6757.0000,1964.0000 C 6757.0000,1960.0000 6760.0000,1956.0000 6765.0000,1956.0000 C 6769.0000,1956.0000 6773.0000,1960.0000 6773.0000,1964.0000 Z M 6773.0000,2156.0000 L 6773.0000,2268.0000 C 6773.0000,2272.0000 6769.0000,2276.0000 6765.0000,2276.0000 C 6760.0000,2276.0000 6757.0000,2272.0000 6757.0000,2268.0000 L 6757.0000,2156.0000 C 6757.0000,2152.0000 6760.0000,2148.0000 6765.0000,2148.0000 C 6769.0000,2148.0000 6773.0000,2152.0000 6773.0000,2156.0000 Z M 6773.0000,2348.0000 L 6773.0000,2460.0000 C 6773.0000,2464.0000 6769.0000,2468.0000 6765.0000,2468.0000 C 6760.0000,2468.0000 6757.0000,2464.0000 6757.0000,2460.0000 L 6757.0000,2348.0000 C 6757.0000,2344.0000 6760.0000,2340.0000 6765.0000,2340.0000 C 6769.0000,2340.0000 6773.0000,2344.0000 6773.0000,2348.0000 Z M 6773.0000,2540.0000 L 6773.0000,2652.0000 C 6773.0000,2656.0000 6769.0000,2660.0000 6765.0000,2660.0000 C 6760.0000,2660.0000 6757.0000,2656.0000 6757.0000,2652.0000 L 6757.0000,2540.0000 C 6757.0000,2536.0000 6760.0000,2532.0000 6765.0000,2532.0000 C 6769.0000,2532.0000 6773.0000,2536.0000 6773.0000,2540.0000 Z M 6773.0000,2732.0000 L 6773.0000,2844.0000 C 6773.0000,2848.0000 6769.0000,2852.0000 6765.0000,2852.0000 C 6760.0000,2852.0000 6757.0000,2848.0000 6757.0000,2844.0000 L 6757.0000,2732.0000 C 6757.0000,2728.0000 6760.0000,2724.0000 6765.0000,2724.0000 C 6769.0000,2724.0000 6773.0000,2728.0000 6773.0000,2732.0000 Z M 6773.0000,2924.0000 L 6773.0000,3036.0000 C 6773.0000,3040.0000 6769.0000,3044.0000 6765.0000,3044.0000 C 6760.0000,3044.0000 6757.0000,3040.0000 6757.0000,3036.0000 L 6757.0000,2924.0000 C 6757.0000,2920.0000 6760.0000,2916.0000 6765.0000,2916.0000 C 6769.0000,2916.0000 6773.0000,2920.0000 6773.0000,2924.0000 Z M 6773.0000,3116.0000 L 6773.0000,3228.0000 C 6773.0000,3232.0000 6769.0000,3236.0000 6765.0000,3236.0000 C 6760.0000,3236.0000 6757.0000,3232.0000 6757.0000,3228.0000 L 6757.0000,3116.0000 C 6757.0000,3112.0000 6760.0000,3108.0000 6765.0000,3108.0000 C 6769.0000,3108.0000 6773.0000,3112.0000 6773.0000,3116.0000 Z M 6773.0000,3308.0000 L 6773.0000,3420.0000 C 6773.0000,3424.0000 6769.0000,3428.0000 6765.0000,3428.0000 C 6760.0000,3428.0000 6757.0000,3424.0000 6757.0000,3420.0000 L 6757.0000,3308.0000 C 6757.0000,3304.0000 6760.0000,3300.0000 6765.0000,3300.0000 C 6769.0000,3300.0000 6773.0000,3304.0000 6773.0000,3308.0000 Z M 6773.0000,3500.0000 L 6773.0000,3612.0000 C 6773.0000,3616.0000 6769.0000,3620.0000 6765.0000,3620.0000 C 6760.0000,3620.0000 6757.0000,3616.0000 6757.0000,3612.0000 L 6757.0000,3500.0000 C 6757.0000,3496.0000 6760.0000,3492.0000 6765.0000,3492.0000 C 6769.0000,3492.0000 6773.0000,3496.0000 6773.0000,3500.0000 Z M 6773.0000,3692.0000 L 6773.0000,3804.0000 C 6773.0000,3808.0000 6769.0000,3812.0000 6765.0000,3812.0000 C 6760.0000,3812.0000 6757.0000,3808.0000 6757.0000,3804.0000 L 6757.0000,3692.0000 C 6757.0000,3688.0000 6760.0000,3684.0000 6765.0000,3684.0000 C 6769.0000,3684.0000 6773.0000,3688.0000 6773.0000,3692.0000 Z M 6773.0000,3884.0000 L 6773.0000,3996.0000 C 6773.0000,4000.0000 6769.0000,4004.0000 6765.0000,4004.0000 C 6760.0000,4004.0000 6757.0000,4000.0000 6757.0000,3996.0000 L 6757.0000,3884.0000 C 6757.0000,3880.0000 6760.0000,3876.0000 6765.0000,3876.0000 C 6769.0000,3876.0000 6773.0000,3880.0000 6773.0000,3884.0000 Z M 6773.0000,4076.0000 L 6773.0000,4188.0000 C 6773.0000,4192.0000 6769.0000,4196.0000 6765.0000,4196.0000 C 6760.0000,4196.0000 6757.0000,4192.0000 6757.0000,4188.0000 L 6757.0000,4076.0000 C 6757.0000,4072.0000 6760.0000,4068.0000 6765.0000,4068.0000 C 6769.0000,4068.0000 6773.0000,4072.0000 6773.0000,4076.0000 Z M 6773.0000,4268.0000 L 6773.0000,4380.0000 C 6773.0000,4384.0000 6769.0000,4388.0000 6765.0000,4388.0000 C 6760.0000,4388.0000 6757.0000,4384.0000 6757.0000,4380.0000 L 6757.0000,4268.0000 C 6757.0000,4264.0000 6760.0000,4260.0000 6765.0000,4260.0000 C 6769.0000,4260.0000 6773.0000,4264.0000 6773.0000,4268.0000 Z M 6773.0000,4460.0000 L 6773.0000,4572.0000 C 6773.0000,4576.0000 6769.0000,4580.0000 6765.0000,4580.0000 C 6760.0000,4580.0000 6757.0000,4576.0000 6757.0000,4572.0000 L 6757.0000,4460.0000 C 6757.0000,4456.0000 6760.0000,4452.0000 6765.0000,4452.0000 C 6769.0000,4452.0000 6773.0000,4456.0000 6773.0000,4460.0000 Z M 6773.0000,4652.0000 L 6773.0000,4764.0000 C 6773.0000,4768.0000 6769.0000,4772.0000 6765.0000,4772.0000 C 6760.0000,4772.0000 6757.0000,4768.0000 6757.0000,4764.0000 L 6757.0000,4652.0000 C 6757.0000,4648.0000 6760.0000,4644.0000 6765.0000,4644.0000 C 6769.0000,4644.0000 6773.0000,4648.0000 6773.0000,4652.0000 Z M 6773.0000,4844.0000 L 6773.0000,4956.0000 C 6773.0000,4960.0000 6769.0000,4964.0000 6765.0000,4964.0000 C 6760.0000,4964.0000 6757.0000,4960.0000 6757.0000,4956.0000 L 6757.0000,4844.0000 C 6757.0000,4840.0000 6760.0000,4836.0000 6765.0000,4836.0000 C 6769.0000,4836.0000 6773.0000,4840.0000 6773.0000,4844.0000 Z M 6773.0000,5036.0000 L 6773.0000,5148.0000 C 6773.0000,5152.0000 6769.0000,5156.0000 6765.0000,5156.0000 C 6760.0000,5156.0000 6757.0000,5152.0000 6757.0000,5148.0000 L 6757.0000,5036.0000 C 6757.0000,5032.0000 6760.0000,5028.0000 6765.0000,5028.0000 C 6769.0000,5028.0000 6773.0000,5032.0000 6773.0000,5036.0000 Z M 6773.0000,5228.0000 L 6773.0000,5340.0000 C 6773.0000,5344.0000 6769.0000,5348.0000 6765.0000,5348.0000 C 6760.0000,5348.0000 6757.0000,5344.0000 6757.0000,5340.0000 L 6757.0000,5228.0000 C 6757.0000,5224.0000 6760.0000,5220.0000 6765.0000,5220.0000 C 6769.0000,5220.0000 6773.0000,5224.0000 6773.0000,5228.0000 Z M 6773.0000,5420.0000 L 6773.0000,5532.0000 C 6773.0000,5536.0000 6769.0000,5540.0000 6765.0000,5540.0000 C 6760.0000,5540.0000 6757.0000,5536.0000 6757.0000,5532.0000 L 6757.0000,5420.0000 C 6757.0000,5416.0000 6760.0000,5412.0000 6765.0000,5412.0000 C 6769.0000,5412.0000 6773.0000,5416.0000 6773.0000,5420.0000 Z M 6773.0000,5612.0000 L 6773.0000,5724.0000 C 6773.0000,5728.0000 6769.0000,5732.0000 6765.0000,5732.0000 C 6760.0000,5732.0000 6757.0000,5728.0000 6757.0000,5724.0000 L 6757.0000,5612.0000 C 6757.0000,5608.0000 6760.0000,5604.0000 6765.0000,5604.0000 C 6769.0000,5604.0000 6773.0000,5608.0000 6773.0000,5612.0000 Z M 6773.0000,5804.0000 L 6773.0000,5818.0000 C 6773.0000,5822.0000 6769.0000,5826.0000 6765.0000,5826.0000 C 6760.0000,5826.0000 6757.0000,5822.0000 6757.0000,5818.0000 L 6757.0000,5804.0000 C 6757.0000,5800.0000 6760.0000,5796.0000 6765.0000,5796.0000 C 6769.0000,5796.0000 6773.0000,5800.0000 6773.0000,5804.0000 Z Z "  fill="#9C9C9C" stroke="#9C9C9C" stroke-width="16.0000"  stroke-linecap="butt"  stroke-linejoin="bevel" />
</g>
<g transform="matrix(1.0000 0.0000 0.0000 1.0000 0.0000 0.0000)">
</g>
<g transform="matrix(0.0625 0.0000 0.0000 0.0625 0.0000 0.0000)">
<path d="M 5555.0000,132.0000 L 5555.0000,812.0000 L 7974.0000,812.0000 L 7974.0000,132.0000 L 5555.0000,132.0000 Z" stroke-width="1px" stroke="#5B9BD5"  fill="#5B9BD5" />
</g>
<g transform="matrix(1.0000 0.0000 0.0000 1.0000 0.0000 0.0000)">
</g>
<g transform="matrix(0.0625 0.0000 0.0000 0.0625 0.0000 0.0000)">
<path d="M 5555.0000,812.0000 L 7974.0000,812.0000 L 7974.0000,132.0000 L 5555.0000,132.0000 L 5555.0000,812.0000 Z" stroke="#FFFFFF" stroke-width="13.0000"  stroke-linecap="round"  stroke-linejoin="round" fill="none" />
</g>
<g transform="matrix(1.0000 0.0000 0.0000 1.0000 0.0000 0.0000)">
<text font-family="Segoe UI" fill="#FFFFFF" style ="white-space:pre;" font-weight="700" text-anchor="start" x="359.0000" y="35.0000" font-size="20.0000" ><![CDATA[Virtuell tjänst]]></text>
</g>
<g transform="matrix(0.0625 0.0000 0.0000 0.0625 0.0000 0.0000)">
<path d="M 1880.0000,1719.0000 L 1880.0000,5121.0000 L 2106.0000,5121.0000 L 2106.0000,1719.0000 L 1880.0000,1719.0000 Z" stroke-width="1px" stroke="#5B9BD5"  fill="#5B9BD5" />
</g>
<g transform="matrix(1.0000 0.0000 0.0000 1.0000 0.0000 0.0000)">
</g>
<g transform="matrix(0.0625 0.0000 0.0000 0.0625 0.0000 0.0000)">
<path d="M 2106.0000,5121.0000 L 2106.0000,1719.0000 L 1880.0000,1719.0000 L 1880.0000,5121.0000 L 2106.0000,5121.0000 Z" stroke="#A54D00" stroke-width="13.0000"  stroke-linecap="round"  stroke-linejoin="round" fill="none" />
</g>
<g transform="matrix(1.0000 0.0000 0.0000 1.0000 0.0000 0.0000)">
</g>
<g transform="matrix(0.0625 0.0000 0.0000 0.0625 0.0000 0.0000)">
<path d="M 6651.0000,2173.0000 L 6651.0000,4591.0000 L 6878.0000,4591.0000 L 6878.0000,2173.0000 L 6651.0000,2173.0000 Z" stroke-width="1px" stroke="#5B9BD5"  fill="#5B9BD5" />
</g>
<g transform="matrix(1.0000 0.0000 0.0000 1.0000 0.0000 0.0000)">
</g>
<g transform="matrix(0.0625 0.0000 0.0000 0.0625 0.0000 0.0000)">
<path d="M 6878.0000,4591.0000 L 6878.0000,2173.0000 L 6651.0000,2173.0000 L 6651.0000,4591.0000 L 6878.0000,4591.0000 Z" stroke="#A54D00" stroke-width="13.0000"  stroke-linecap="round"  stroke-linejoin="round" fill="none" />
</g>
<g transform="matrix(1.0000 0.0000 0.0000 1.0000 0.0000 0.0000)">
</g>
<g transform="matrix(0.0625 0.0000 0.0000 0.0625 0.0000 0.0000)">
<path d="M 2106.0000,2173.0000 L 6477.0000,2173.0000 " stroke="#000000" stroke-width="13.0000"  stroke-linecap="round"  stroke-linejoin="round" fill="none" />
</g>
<g transform="matrix(1.0000 0.0000 0.0000 1.0000 0.0000 0.0000)">
</g>
<g transform="matrix(0.0625 0.0000 0.0000 0.0625 0.0000 0.0000)">
<path d="M 6452.0000,2073.0000 L 6651.0000,2173.0000 L 6452.0000,2272.0000 L 6452.0000,2073.0000 Z" stroke-width="1px" stroke="#000000"  fill="#000000" />
</g>
<g transform="matrix(1.0000 0.0000 0.0000 1.0000 0.0000 0.0000)">
</g>
<g transform="matrix(0.0625 0.0000 0.0000 0.0625 0.0000 0.0000)">
<path d="M 3142.0000,2013.0000 L 3142.0000,2333.0000 L 5616.0000,2333.0000 L 5616.0000,2013.0000 L 3142.0000,2013.0000 Z" stroke-width="1px" stroke="#FFFFFF"  fill="#FFFFFF" />
</g>
<g transform="matrix(1.0000 0.0000 0.0000 1.0000 0.0000 0.0000)">
<text font-family="Segoe UI" fill="#000000" style ="white-space:pre;" font-weight="400" text-anchor="start" x="196.0000" y="141.0000" font-size="17.0000" ><![CDATA["Replikation"Request]]></text>
</g>
<g transform="matrix(0.0625 0.0000 0.0000 0.0625 0.0000 0.0000)">
<path d="M 10941.0000,132.0000 L 10941.0000,812.0000 L 12302.0000,812.0000 L 12302.0000,132.0000 L 10941.0000,132.0000 Z" stroke-width="1px" stroke="#5B9BD5"  fill="#5B9BD5" />
</g>
<g transform="matrix(1.0000 0.0000 0.0000 1.0000 0.0000 0.0000)">
</g>
<g transform="matrix(0.0625 0.0000 0.0000 0.0625 0.0000 0.0000)">
<path d="M 10941.0000,812.0000 L 12302.0000,812.0000 L 12302.0000,132.0000 L 10941.0000,132.0000 L 10941.0000,812.0000 Z" stroke="#FFFFFF" stroke-width="13.0000"  stroke-linecap="round"  stroke-linejoin="round" fill="none" />
</g>
<g transform="matrix(1.0000 0.0000 0.0000 1.0000 0.0000 0.0000)">
</g>
<g transform="matrix(0.0625 0.0000 0.0000 0.0625 0.0000 0.0000)">
<path d="M 11629.0000,812.0000 L 11629.0000,924.0000 C 11629.0000,928.0000 11626.0000,932.0000 11621.0000,932.0000 C 11617.0000,932.0000 11613.0000,928.0000 11613.0000,924.0000 L 11613.0000,812.0000 C 11613.0000,808.0000 11617.0000,804.0000 11621.0000,804.0000 C 11626.0000,804.0000 11629.0000,808.0000 11629.0000,812.0000 Z M 11629.0000,1004.0000 L 11629.0000,1116.0000 C 11629.0000,1120.0000 11626.0000,1124.0000 11621.0000,1124.0000 C 11617.0000,1124.0000 11613.0000,1120.0000 11613.0000,1116.0000 L 11613.0000,1004.0000 C 11613.0000,1000.0000 11617.0000,996.0000 11621.0000,996.0000 C 11626.0000,996.0000 11629.0000,1000.0000 11629.0000,1004.0000 Z M 11629.0000,1196.0000 L 11629.0000,1308.0000 C 11629.0000,1312.0000 11626.0000,1316.0000 11621.0000,1316.0000 C 11617.0000,1316.0000 11613.0000,1312.0000 11613.0000,1308.0000 L 11613.0000,1196.0000 C 11613.0000,1192.0000 11617.0000,1188.0000 11621.0000,1188.0000 C 11626.0000,1188.0000 11629.0000,1192.0000 11629.0000,1196.0000 Z M 11629.0000,1388.0000 L 11629.0000,1500.0000 C 11629.0000,1504.0000 11626.0000,1508.0000 11621.0000,1508.0000 C 11617.0000,1508.0000 11613.0000,1504.0000 11613.0000,1500.0000 L 11613.0000,1388.0000 C 11613.0000,1384.0000 11617.0000,1380.0000 11621.0000,1380.0000 C 11626.0000,1380.0000 11629.0000,1384.0000 11629.0000,1388.0000 Z M 11629.0000,1580.0000 L 11629.0000,1692.0000 C 11629.0000,1696.0000 11626.0000,1700.0000 11621.0000,1700.0000 C 11617.0000,1700.0000 11613.0000,1696.0000 11613.0000,1692.0000 L 11613.0000,1580.0000 C 11613.0000,1576.0000 11617.0000,1572.0000 11621.0000,1572.0000 C 11626.0000,1572.0000 11629.0000,1576.0000 11629.0000,1580.0000 Z M 11629.0000,1772.0000 L 11629.0000,1884.0000 C 11629.0000,1888.0000 11626.0000,1892.0000 11621.0000,1892.0000 C 11617.0000,1892.0000 11613.0000,1888.0000 11613.0000,1884.0000 L 11613.0000,1772.0000 C 11613.0000,1768.0000 11617.0000,1764.0000 11621.0000,1764.0000 C 11626.0000,1764.0000 11629.0000,1768.0000 11629.0000,1772.0000 Z M 11629.0000,1964.0000 L 11629.0000,2076.0000 C 11629.0000,2080.0000 11626.0000,2084.0000 11621.0000,2084.0000 C 11617.0000,2084.0000 11613.0000,2080.0000 11613.0000,2076.0000 L 11613.0000,1964.0000 C 11613.0000,1960.0000 11617.0000,1956.0000 11621.0000,1956.0000 C 11626.0000,1956.0000 11629.0000,1960.0000 11629.0000,1964.0000 Z M 11629.0000,2156.0000 L 11629.0000,2268.0000 C 11629.0000,2272.0000 11626.0000,2276.0000 11621.0000,2276.0000 C 11617.0000,2276.0000 11613.0000,2272.0000 11613.0000,2268.0000 L 11613.0000,2156.0000 C 11613.0000,2152.0000 11617.0000,2148.0000 11621.0000,2148.0000 C 11626.0000,2148.0000 11629.0000,2152.0000 11629.0000,2156.0000 Z M 11629.0000,2348.0000 L 11629.0000,2460.0000 C 11629.0000,2464.0000 11626.0000,2468.0000 11621.0000,2468.0000 C 11617.0000,2468.0000 11613.0000,2464.0000 11613.0000,2460.0000 L 11613.0000,2348.0000 C 11613.0000,2344.0000 11617.0000,2340.0000 11621.0000,2340.0000 C 11626.0000,2340.0000 11629.0000,2344.0000 11629.0000,2348.0000 Z M 11629.0000,2540.0000 L 11629.0000,2652.0000 C 11629.0000,2656.0000 11626.0000,2660.0000 11621.0000,2660.0000 C 11617.0000,2660.0000 11613.0000,2656.0000 11613.0000,2652.0000 L 11613.0000,2540.0000 C 11613.0000,2536.0000 11617.0000,2532.0000 11621.0000,2532.0000 C 11626.0000,2532.0000 11629.0000,2536.0000 11629.0000,2540.0000 Z M 11629.0000,2732.0000 L 11629.0000,2844.0000 C 11629.0000,2848.0000 11626.0000,2852.0000 11621.0000,2852.0000 C 11617.0000,2852.0000 11613.0000,2848.0000 11613.0000,2844.0000 L 11613.0000,2732.0000 C 11613.0000,2728.0000 11617.0000,2724.0000 11621.0000,2724.0000 C 11626.0000,2724.0000 11629.0000,2728.0000 11629.0000,2732.0000 Z M 11629.0000,2924.0000 L 11629.0000,3036.0000 C 11629.0000,3040.0000 11626.0000,3044.0000 11621.0000,3044.0000 C 11617.0000,3044.0000 11613.0000,3040.0000 11613.0000,3036.0000 L 11613.0000,2924.0000 C 11613.0000,2920.0000 11617.0000,2916.0000 11621.0000,2916.0000 C 11626.0000,2916.0000 11629.0000,2920.0000 11629.0000,2924.0000 Z M 11629.0000,3116.0000 L 11629.0000,3228.0000 C 11629.0000,3232.0000 11626.0000,3236.0000 11621.0000,3236.0000 C 11617.0000,3236.0000 11613.0000,3232.0000 11613.0000,3228.0000 L 11613.0000,3116.0000 C 11613.0000,3112.0000 11617.0000,3108.0000 11621.0000,3108.0000 C 11626.0000,3108.0000 11629.0000,3112.0000 11629.0000,3116.0000 Z M 11629.0000,3308.0000 L 11629.0000,3420.0000 C 11629.0000,3424.0000 11626.0000,3428.0000 11621.0000,3428.0000 C 11617.0000,3428.0000 11613.0000,3424.0000 11613.0000,3420.0000 L 11613.0000,3308.0000 C 11613.0000,3304.0000 11617.0000,3300.0000 11621.0000,3300.0000 C 11626.0000,3300.0000 11629.0000,3304.0000 11629.0000,3308.0000 Z M 11629.0000,3500.0000 L 11629.0000,3612.0000 C 11629.0000,3616.0000 11626.0000,3620.0000 11621.0000,3620.0000 C 11617.0000,3620.0000 11613.0000,3616.0000 11613.0000,3612.0000 L 11613.0000,3500.0000 C 11613.0000,3496.0000 11617.0000,3492.0000 11621.0000,3492.0000 C 11626.0000,3492.0000 11629.0000,3496.0000 11629.0000,3500.0000 Z M 11629.0000,3692.0000 L 11629.0000,3804.0000 C 11629.0000,3808.0000 11626.0000,3812.0000 11621.0000,3812.0000 C 11617.0000,3812.0000 11613.0000,3808.0000 11613.0000,3804.0000 L 11613.0000,3692.0000 C 11613.0000,3688.0000 11617.0000,3684.0000 11621.0000,3684.0000 C 11626.0000,3684.0000 11629.0000,3688.0000 11629.0000,3692.0000 Z M 11629.0000,3884.0000 L 11629.0000,3996.0000 C 11629.0000,4000.0000 11626.0000,4004.0000 11621.0000,4004.0000 C 11617.0000,4004.0000 11613.0000,4000.0000 11613.0000,3996.0000 L 11613.0000,3884.0000 C 11613.0000,3880.0000 11617.0000,3876.0000 11621.0000,3876.0000 C 11626.0000,3876.0000 11629.0000,3880.0000 11629.0000,3884.0000 Z M 11629.0000,4076.0000 L 11629.0000,4188.0000 C 11629.0000,4192.0000 11626.0000,4196.0000 11621.0000,4196.0000 C 11617.0000,4196.0000 11613.0000,4192.0000 11613.0000,4188.0000 L 11613.0000,4076.0000 C 11613.0000,4072.0000 11617.0000,4068.0000 11621.0000,4068.0000 C 11626.0000,4068.0000 11629.0000,4072.0000 11629.0000,4076.0000 Z M 11629.0000,4268.0000 L 11629.0000,4380.0000 C 11629.0000,4384.0000 11626.0000,4388.0000 11621.0000,4388.0000 C 11617.0000,4388.0000 11613.0000,4384.0000 11613.0000,4380.0000 L 11613.0000,4268.0000 C 11613.0000,4264.0000 11617.0000,4260.0000 11621.0000,4260.0000 C 11626.0000,4260.0000 11629.0000,4264.0000 11629.0000,4268.0000 Z M 11629.0000,4460.0000 L 11629.0000,4572.0000 C 11629.0000,4576.0000 11626.0000,4580.0000 11621.0000,4580.0000 C 11617.0000,4580.0000 11613.0000,4576.0000 11613.0000,4572.0000 L 11613.0000,4460.0000 C 11613.0000,4456.0000 11617.0000,4452.0000 11621.0000,4452.0000 C 11626.0000,4452.0000 11629.0000,4456.0000 11629.0000,4460.0000 Z M 11629.0000,4652.0000 L 11629.0000,4764.0000 C 11629.0000,4768.0000 11626.0000,4772.0000 11621.0000,4772.0000 C 11617.0000,4772.0000 11613.0000,4768.0000 11613.0000,4764.0000 L 11613.0000,4652.0000 C 11613.0000,4648.0000 11617.0000,4644.0000 11621.0000,4644.0000 C 11626.0000,4644.0000 11629.0000,4648.0000 11629.0000,4652.0000 Z M 11629.0000,4844.0000 L 11629.0000,4956.0000 C 11629.0000,4960.0000 11626.0000,4964.0000 11621.0000,4964.0000 C 11617.0000,4964.0000 11613.0000,4960.0000 11613.0000,4956.0000 L 11613.0000,4844.0000 C 11613.0000,4840.0000 11617.0000,4836.0000 11621.0000,4836.0000 C 11626.0000,4836.0000 11629.0000,4840.0000 11629.0000,4844.0000 Z M 11629.0000,5036.0000 L 11629.0000,5148.0000 C 11629.0000,5152.0000 11626.0000,5156.0000 11621.0000,5156.0000 C 11617.0000,5156.0000 11613.0000,5152.0000 11613.0000,5148.0000 L 11613.0000,5036.0000 C 11613.0000,5032.0000 11617.0000,5028.0000 11621.0000,5028.0000 C 11626.0000,5028.0000 11629.0000,5032.0000 11629.0000,5036.0000 Z M 11629.0000,5228.0000 L 11629.0000,5340.0000 C 11629.0000,5344.0000 11626.0000,5348.0000 11621.0000,5348.0000 C 11617.0000,5348.0000 11613.0000,5344.0000 11613.0000,5340.0000 L 11613.0000,5228.0000 C 11613.0000,5224.0000 11617.0000,5220.0000 11621.0000,5220.0000 C 11626.0000,5220.0000 11629.0000,5224.0000 11629.0000,5228.0000 Z M 11629.0000,5420.0000 L 11629.0000,5532.0000 C 11629.0000,5536.0000 11626.0000,5540.0000 11621.0000,5540.0000 C 11617.0000,5540.0000 11613.0000,5536.0000 11613.0000,5532.0000 L 11613.0000,5420.0000 C 11613.0000,5416.0000 11617.0000,5412.0000 11621.0000,5412.0000 C 11626.0000,5412.0000 11629.0000,5416.0000 11629.0000,5420.0000 Z M 11629.0000,5612.0000 L 11629.0000,5724.0000 C 11629.0000,5728.0000 11626.0000,5732.0000 11621.0000,5732.0000 C 11617.0000,5732.0000 11613.0000,5728.0000 11613.0000,5724.0000 L 11613.0000,5612.0000 C 11613.0000,5608.0000 11617.0000,5604.0000 11621.0000,5604.0000 C 11626.0000,5604.0000 11629.0000,5608.0000 11629.0000,5612.0000 Z Z "  fill="#9C9C9C" stroke="#9C9C9C" stroke-width="16.0000"  stroke-linecap="butt"  stroke-linejoin="bevel" />
</g>
<g transform="matrix(1.0000 0.0000 0.0000 1.0000 0.0000 0.0000)">
</g>
<g transform="matrix(0.0625 0.0000 0.0000 0.0625 0.0000 0.0000)">
<path d="M 9240.0000,132.0000 L 9240.0000,812.0000 L 14002.0000,812.0000 L 14002.0000,132.0000 L 9240.0000,132.0000 Z" stroke-width="1px" stroke="#5B9BD5"  fill="#5B9BD5" />
</g>
<g transform="matrix(1.0000 0.0000 0.0000 1.0000 0.0000 0.0000)">
</g>
<g transform="matrix(0.0625 0.0000 0.0000 0.0625 0.0000 0.0000)">
<path d="M 9240.0000,812.0000 L 14002.0000,812.0000 L 14002.0000,132.0000 L 9240.0000,132.0000 L 9240.0000,812.0000 Z" stroke="#FFFFFF" stroke-width="13.0000"  stroke-linecap="round"  stroke-linejoin="round" fill="none" />
</g>
<g transform="matrix(1.0000 0.0000 0.0000 1.0000 0.0000 0.0000)">
<text font-family="Segoe UI" fill="#FFFFFF" style ="white-space:pre;" font-weight="700" text-anchor="start" x="630.0000" y="35.0000" font-size="20.0000" ><![CDATA[Nationell spärrtjänst]]></text>
</g>
<g transform="matrix(0.0625 0.0000 0.0000 0.0625 0.0000 0.0000)">
<path d="M 6878.0000,2626.0000 L 11333.0000,2626.0000 " stroke="#000000" stroke-width="13.0000"  stroke-linecap="round"  stroke-linejoin="round" fill="none" />
</g>
<g transform="matrix(1.0000 0.0000 0.0000 1.0000 0.0000 0.0000)">
</g>
<g transform="matrix(0.0625 0.0000 0.0000 0.0625 0.0000 0.0000)">
<path d="M 11309.0000,2526.0000 L 11508.0000,2626.0000 L 11309.0000,2726.0000 L 11309.0000,2526.0000 Z" stroke-width="1px" stroke="#000000"  fill="#000000" />
</g>
<g transform="matrix(1.0000 0.0000 0.0000 1.0000 0.0000 0.0000)">
</g>
<g transform="matrix(0.0625 0.0000 0.0000 0.0625 0.0000 0.0000)">
<path d="M 7956.0000,2466.0000 L 7956.0000,2786.0000 L 10430.0000,2786.0000 L 10430.0000,2466.0000 L 7956.0000,2466.0000 Z" stroke-width="1px" stroke="#FFFFFF"  fill="#FFFFFF" />
</g>
<g transform="matrix(1.0000 0.0000 0.0000 1.0000 0.0000 0.0000)">
<text font-family="Segoe UI" fill="#000000" style ="white-space:pre;" font-weight="400" text-anchor="start" x="497.0000" y="169.0000" font-size="17.0000" ><![CDATA["Replikation"Request]]></text>
</g>
<g transform="matrix(0.0625 0.0000 0.0000 0.0625 0.0000 0.0000)">
<path d="M 11508.0000,2173.0000 L 11508.0000,4591.0000 L 11735.0000,4591.0000 L 11735.0000,2173.0000 L 11508.0000,2173.0000 Z" stroke-width="1px" stroke="#5B9BD5"  fill="#5B9BD5" />
</g>
<g transform="matrix(1.0000 0.0000 0.0000 1.0000 0.0000 0.0000)">
</g>
<g transform="matrix(0.0625 0.0000 0.0000 0.0625 0.0000 0.0000)">
<path d="M 11735.0000,4591.0000 L 11735.0000,2173.0000 L 11508.0000,2173.0000 L 11508.0000,4591.0000 L 11735.0000,4591.0000 Z" stroke="#A54D00" stroke-width="13.0000"  stroke-linecap="round"  stroke-linejoin="round" fill="none" />
</g>
<g transform="matrix(1.0000 0.0000 0.0000 1.0000 0.0000 0.0000)">
</g>
<g transform="matrix(0.0625 0.0000 0.0000 0.0625 0.0000 0.0000)">
<path d="M 11508.0000,4062.0000 L 7053.0000,4062.0000 " stroke="#000000" stroke-width="13.0000"  stroke-linecap="round"  stroke-linejoin="round" fill="none" />
</g>
<g transform="matrix(1.0000 0.0000 0.0000 1.0000 0.0000 0.0000)">
</g>
<g transform="matrix(0.0625 0.0000 0.0000 0.0625 0.0000 0.0000)">
<path d="M 7078.0000,4162.0000 L 6878.0000,4062.0000 L 7078.0000,3963.0000 L 7078.0000,4162.0000 Z" stroke-width="1px" stroke="#000000"  fill="#000000" />
</g>
<g transform="matrix(1.0000 0.0000 0.0000 1.0000 0.0000 0.0000)">
</g>
<g transform="matrix(0.0625 0.0000 0.0000 0.0625 0.0000 0.0000)">
<path d="M 7936.0000,3902.0000 L 7936.0000,4222.0000 L 10450.0000,4222.0000 L 10450.0000,3902.0000 L 7936.0000,3902.0000 Z" stroke-width="1px" stroke="#FFFFFF"  fill="#FFFFFF" />
</g>
<g transform="matrix(1.0000 0.0000 0.0000 1.0000 0.0000 0.0000)">
<text font-family="Segoe UI" fill="#000000" style ="white-space:pre;" font-weight="400" text-anchor="start" x="496.0000" y="259.0000" font-size="17.0000" ><![CDATA["Replikation"Respons]]></text>
</g>
<g transform="matrix(0.0625 0.0000 0.0000 0.0625 0.0000 0.0000)">
<path d="M 6651.0000,4570.0000 L 2281.0000,4591.0000 " stroke="#000000" stroke-width="13.0000"  stroke-linecap="round"  stroke-linejoin="round" fill="none" />
</g>
<g transform="matrix(1.0000 0.0000 0.0000 1.0000 0.0000 0.0000)">
</g>
<g transform="matrix(0.0625 0.0000 0.0000 0.0625 0.0000 0.0000)">
<path d="M 2306.0000,4690.0000 L 2106.0000,4591.0000 L 2305.0000,4491.0000 L 2306.0000,4690.0000 Z" stroke-width="1px" stroke="#000000"  fill="#000000" />
</g>
<g transform="matrix(1.0000 0.0000 0.0000 1.0000 0.0000 0.0000)">
</g>
<g transform="matrix(0.0625 0.0000 0.0000 0.0625 0.0000 0.0000)">
<path d="M 3122.0000,4421.0000 L 3122.0000,4741.0000 L 5636.0000,4741.0000 L 5636.0000,4421.0000 L 3122.0000,4421.0000 Z" stroke-width="1px" stroke="#FFFFFF"  fill="#FFFFFF" />
</g>
<g transform="matrix(1.0000 0.0000 0.0000 1.0000 0.0000 0.0000)">
<text font-family="Segoe UI" fill="#000000" style ="white-space:pre;" font-weight="400" text-anchor="start" x="195.0000" y="291.0000" font-size="17.0000" ><![CDATA["Replikation"Respons]]></text>
</g>
</g>
</svg>
